<svg width="44" height="44" viewBox="0 0 44 44" fill="none" xmlns="http://www.w3.org/2000/svg">
<path fill-rule="evenodd" clip-rule="evenodd" d="M44 22C44 34.1503 34.1503 44 22 44C9.84974 44 0 34.1503 0 22C0 9.84974 9.84974 0 22 0C34.1503 0 44 9.84974 44 22ZM26.516 29.7859H29.7816L29.7773 24.0152C29.7773 21.1836 29.1672 19.0051 25.8586 19.0051C24.2688 19.0051 23.2031 19.8773 22.7648 20.7023H22.7219V19.2672H19.5852V29.7859H22.8508V24.5824C22.8508 23.2117 23.1129 21.884 24.8145 21.884C26.4902 21.884 26.516 23.4523 26.516 24.6727V29.7859ZM14.0078 15.9328C14.0078 16.977 14.85 17.8277 15.9027 17.8277C16.9469 17.8277 17.7977 16.977 17.7977 15.9328C17.7977 14.8887 16.9512 14.0379 15.9027 14.0379C14.8543 14.0379 14.0078 14.8887 14.0078 15.9328ZM14.2656 19.2672V29.7859H17.5398V19.2672H14.2656ZM12.6285 11H31.4145C32.3082 11 33.043 11.709 33.043 12.5898V31.4531C33.043 32.334 32.3082 33.043 31.4102 33.043H12.6285C11.7262 33.043 11 32.3297 11 31.4531V12.5898C11 11.709 11.7305 11 12.6285 11Z" fill="#232323"/>
</svg>
