<svg width="270" height="68" viewBox="0 0 270 68" fill="none" xmlns="http://www.w3.org/2000/svg">
<g clip-path="url(#clip0_10002_56)">
<path d="M163.844 9.03045C165.074 9.0721 166.645 9.11374 168.214 9.18142C169.263 9.22654 170.311 9.30983 171.361 9.37577C171.866 9.407 172.371 9.43997 172.876 9.46253C173.727 9.50071 174.579 9.53194 175.431 9.56665C176.76 9.62044 178.091 9.65688 179.42 9.73497C180.458 9.7957 181.483 9.95535 182.474 10.2885C183.541 10.6477 184.487 11.2013 185.219 12.0689C186.271 13.3131 186.687 14.7551 186.514 16.3741C186.266 18.6803 184.574 21.0333 181.743 21.7847C180.029 22.2411 178.365 22.0311 176.748 21.3578C175.684 20.9136 174.731 20.2802 173.839 19.5549C173.147 18.9909 172.505 18.3714 171.875 17.7398C170.954 16.8166 170.036 15.8882 169.1 14.9807C168.557 14.4532 167.988 13.9499 167.414 13.4537C167.112 13.1934 166.785 12.9591 166.454 12.7405C166.201 12.5739 165.926 12.4281 165.645 12.3101C165.104 12.0828 164.538 12.0446 163.964 12.1817C163.49 12.2945 163.108 12.5461 162.827 12.9383C162.666 13.1656 162.529 13.4103 162.387 13.6497C162.291 13.8094 162.218 13.9846 162.112 14.1356C162.006 14.2866 161.885 14.4358 161.743 14.5486C161.449 14.7829 161.116 14.821 160.766 14.6822C160.551 14.5972 160.367 14.4618 160.223 14.2866C160.046 14.0714 159.883 13.8441 159.719 13.6185C159.532 13.3599 159.36 13.0892 159.164 12.8394C159.017 12.652 158.85 12.4767 158.673 12.3171C157.89 11.6056 156.639 11.5587 155.789 12.3049C155.392 12.6537 155.097 13.0754 154.866 13.5456C154.595 14.0992 154.432 14.6892 154.309 15.2896C154.135 16.1381 154.042 16.9971 153.977 17.8612C153.87 19.3345 153.774 20.8095 153.646 22.281C153.556 23.3152 153.396 24.3407 153.098 25.3402C152.91 25.9667 152.667 26.5706 152.325 27.131C150.509 30.1157 146.903 30.5027 144.442 28.7605C143.236 27.9067 142.516 26.7233 142.162 25.3055C142.006 24.6826 141.942 24.044 141.957 23.4054C142.027 20.4988 142.839 17.8196 144.484 15.4145C145.615 13.7608 147.111 12.4923 148.832 11.4824C150.502 10.5037 152.296 9.85817 154.191 9.48683C155.381 9.25256 156.584 9.13283 157.797 9.07557C159.7 8.98533 161.604 9.03566 163.848 9.03392L163.844 9.03045Z" fill="white"/>
<path d="M173.076 50.1997C173.091 50.9684 172.98 51.699 172.691 52.3983C172.363 53.1948 171.845 53.8386 171.131 54.3227C170.379 54.8311 169.548 55.1296 168.653 55.258C167.61 55.409 166.582 55.3448 165.576 55.0255C164.373 54.6437 163.442 53.9132 162.768 52.846C162.293 52.0929 162.005 51.2686 161.817 50.4045C161.644 49.6115 161.543 48.8063 161.479 47.9959C161.344 46.2971 161.302 44.5948 161.238 42.8925C161.175 41.2041 161.102 39.5157 161.033 37.8272C161 37.0169 160.965 36.2048 160.925 35.3944C160.858 33.9992 160.787 32.6041 160.717 31.2089C160.691 30.6901 160.663 30.173 160.646 29.6541C160.606 28.4846 160.561 27.3132 160.54 26.1437C160.528 25.4773 160.611 24.8162 160.774 24.1672C160.889 23.7126 161.062 23.2805 161.345 22.9022C161.472 22.7339 161.613 22.5656 161.779 22.4371C162.31 22.0224 162.89 21.9599 163.501 22.2515C163.855 22.4198 164.144 22.6749 164.405 22.9629C164.745 23.3412 165.01 23.7698 165.248 24.2193C165.578 24.8457 165.828 25.5051 166.044 26.1749C166.706 28.2104 167.365 30.2476 168.011 32.2883C169.395 36.675 170.771 41.0653 172.149 45.4538C172.481 46.5071 172.776 47.5708 172.946 48.664C173.025 49.1776 173.088 49.6913 173.079 50.198L173.076 50.1997Z" fill="white"/>
<path d="M120.862 21.9617C121.451 24.9828 120.929 28.7344 117.632 29.3782C114.995 29.8936 112.907 27.9622 112.456 25.6543L110.632 16.3151C110.117 13.6775 108.201 12.6259 105.216 14.8627L87.8012 27.9015C85.7084 29.4511 83.902 30.7161 84.8495 32.6423C85.7952 34.5684 87.553 34.5094 89.2484 33.267L99.8439 25.6092C104.592 22.1734 108.848 24.9915 109.731 28.9253L110.193 31.0024C110.644 33.024 111.578 33.1281 113.872 33.1923L117.493 33.3416C119.853 33.4509 121.766 35.3597 122.205 37.6121C124.07 47.1717 115.31 54.3002 105.641 56.1864C96.1374 58.0414 85.9496 55.8098 84.0183 45.9205C83.2565 42.0197 84.2144 39.0385 87.4558 38.4051C89.5989 37.9869 93.2464 39.441 91.1502 44.4716L89.441 48.5686C88.9742 49.6861 89.3317 50.6422 89.9564 50.9198C90.9524 51.3519 92.096 51.0726 93.8347 50.3333L116.516 40.6019C118.783 39.6458 119.128 38.4953 118.738 37.3743C118.337 36.1978 117.526 35.8421 115.703 35.856L86.7531 36.2603C83.5133 36.3228 81.5472 34.4244 81.0319 31.7885C79.5413 24.1516 87.9834 14.5191 100.564 12.0637C113.749 9.4903 119.616 15.588 120.86 21.9599L120.862 21.9617ZM95.7383 11.2967C94.6277 11.7409 93.8104 10.4759 94.4056 9.7315L101.14 1.57226C102.983 -0.669704 106.441 -0.489236 107.713 1.94361C108.791 3.95826 108.43 6.19502 105.416 7.41144L95.7383 11.2967Z" fill="white"/>
<path d="M197.59 39.5157C200.493 39.9148 202.511 39.6545 203.217 37.1106L208.194 19.4646C208.984 16.7264 207.889 14.7343 205.692 14.8089C203.495 14.8835 201.066 18.4616 200.059 19.9175L191.956 31.5629C189.809 34.6639 186.861 34.8825 184.981 34.591C181.985 34.1259 179.932 31.2575 180.421 28.108C180.76 25.9233 182.592 24.1794 185.221 22.661L196.695 16.1173C201.659 13.2975 203.693 12.2615 206.995 12.7734C210.044 13.2472 211.788 15.7546 211.911 19.3119L212.741 44.4664C212.924 50.3229 210.519 54.4234 205.286 53.6113C201.119 52.964 199.549 50.0158 200.03 46.9166L200.439 44.2755C200.873 41.4817 199.455 40.8969 197.441 42.1446L191.799 45.6394C189.155 47.2584 184.811 50.434 180.645 49.7867C177.699 49.3286 174.657 47.1404 175.398 42.365C176.029 38.301 179.947 37.1921 184.433 37.7839L197.588 39.5139L197.59 39.5157Z" fill="white"/>
<path d="M0 33.8465C0 21.1079 8.61735 11.9544 20.9273 11.9544C31.2036 11.9544 37.2528 18.3246 37.2528 25.283C37.2528 29.0294 35.6476 32.5086 30.1885 31.9204C25.6924 31.438 25.6924 26.7823 26.2286 23.7317L27.1379 18.6473C27.5665 16.2388 26.2286 14.6336 23.7663 16.1312L6.47776 26.6226C4.39023 27.9067 4.15424 30.1764 6.74673 31.1343C15.8482 34.4973 16.4937 42.3077 16.1137 47.1266C15.7476 51.7736 18.3262 52.9224 20.8232 50.0123L28.6909 40.8067C32.866 35.9358 38.0041 38.773 38.0041 42.6808C38.0041 47.3903 28.6372 54.2412 18.4685 54.2412C5.83398 54.2394 0 45.2993 0 33.8465Z" fill="white"/>
<path d="M216.57 65.123H218.465C218.581 65.4909 218.821 65.7928 219.184 66.0254C219.546 66.2579 220.023 66.3742 220.613 66.3742C221.013 66.3742 221.323 66.336 221.545 66.2596C221.766 66.1833 221.918 66.0722 222.003 65.9265C222.088 65.7807 222.13 65.6159 222.13 65.4302C222.13 65.2029 222.061 65.0259 221.925 64.9027C221.788 64.7777 221.578 64.6771 221.294 64.6025C221.009 64.5261 220.646 64.4567 220.204 64.3908C219.761 64.3144 219.335 64.2224 218.925 64.1148C218.514 64.0073 218.151 63.8632 217.835 63.6845C217.519 63.5058 217.27 63.2784 217.086 63.0025C216.902 62.7266 216.81 62.3883 216.81 61.9874C216.81 61.5866 216.902 61.2499 217.086 60.9462C217.27 60.6426 217.528 60.3875 217.86 60.1827C218.191 59.9762 218.581 59.8201 219.027 59.7107C219.475 59.6031 219.956 59.5476 220.473 59.5476C221.252 59.5476 221.899 59.6639 222.415 59.8964C222.93 60.1289 223.317 60.4552 223.576 60.8716C223.834 61.2881 223.963 61.7688 223.963 62.3102H222.146C222.061 61.9093 221.892 61.6195 221.641 61.4408C221.389 61.2621 220.999 61.1718 220.473 61.1718C219.947 61.1718 219.567 61.2534 219.305 61.4165C219.041 61.5796 218.909 61.8017 218.909 62.0828C218.909 62.3102 218.991 62.4872 219.154 62.6104C219.317 62.7353 219.558 62.836 219.881 62.9106C220.202 62.9869 220.605 63.0685 221.089 63.1552C221.5 63.242 221.892 63.3392 222.265 63.4485C222.639 63.5561 222.973 63.6949 223.268 63.8632C223.563 64.0315 223.798 64.2537 223.971 64.5296C224.145 64.8055 224.232 65.156 224.232 65.5777C224.232 66.0983 224.087 66.5373 223.798 66.8947C223.508 67.2522 223.095 67.5264 222.559 67.7155C222.023 67.9047 221.379 68.0001 220.633 68.0001C219.97 68.0001 219.399 67.9272 218.92 67.7815C218.441 67.6357 218.044 67.4466 217.728 67.2123C217.412 66.9798 217.167 66.7299 216.994 66.4644C216.82 66.1989 216.702 65.9473 216.638 65.7078C216.576 65.4701 216.553 65.274 216.576 65.123H216.57Z" fill="white"/>
<path d="M225.082 59.7263H231.178V61.3679H225.082V59.7263ZM227.103 57.5156H229.156V67.8058H227.103V57.5156Z" fill="white"/>
<path d="M239.469 63.9205L239.485 64.474C239.464 64.6267 239.412 64.8454 239.327 65.1317C239.242 65.4198 239.113 65.7252 238.94 66.0497C238.766 66.3742 238.542 66.6865 238.268 66.985C237.994 67.2834 237.657 67.5264 237.258 67.7155C236.857 67.9047 236.384 68.0001 235.837 68.0001C235.405 68.0001 234.981 67.9463 234.565 67.837C234.149 67.7294 233.772 67.5472 233.435 67.2921C233.099 67.037 232.83 66.6935 232.63 66.2596C232.431 65.8258 232.33 65.2792 232.33 64.6181V59.7246H234.383V64.2606C234.383 64.7812 234.464 65.1907 234.628 65.4874C234.791 65.7859 235.03 65.9941 235.346 66.1139C235.662 66.2336 236.035 66.2926 236.467 66.2926C237.036 66.2926 237.525 66.1659 237.935 65.9108C238.346 65.6558 238.679 65.3452 238.938 64.9755C239.196 64.6077 239.372 64.2554 239.467 63.9188L239.469 63.9205ZM241.411 67.8058H239.358V59.7263H241.411V67.8058Z" fill="white"/>
<path d="M246.938 67.9845C246.148 67.9845 245.435 67.8075 244.798 67.457C244.161 67.1047 243.658 66.6119 243.29 65.9768C242.922 65.3434 242.736 64.6094 242.736 63.7747C242.736 62.9401 242.919 62.1765 243.281 61.5484C243.644 60.9202 244.142 60.4291 244.774 60.0769C245.405 59.7246 246.125 59.5494 246.938 59.5494C247.642 59.5494 248.242 59.6587 248.739 59.8738C249.233 60.0908 249.634 60.3909 249.94 60.7762C250.245 61.1614 250.469 61.6074 250.611 62.1175C250.753 62.6277 250.825 63.1795 250.825 63.7765C250.825 64.2537 250.75 64.7378 250.604 65.2306C250.457 65.7234 250.231 66.1798 249.926 66.5963C249.62 67.0145 249.219 67.3494 248.725 67.6045C248.23 67.8596 247.635 67.9862 246.941 67.9862L246.938 67.9845ZM247.602 66.3585C248.223 66.3585 248.76 66.251 249.212 66.034C249.665 65.8171 250.012 65.5135 250.255 65.123C250.497 64.7326 250.618 64.2832 250.618 63.773C250.618 63.2194 250.495 62.7509 250.247 62.3674C249.999 61.9822 249.651 61.6872 249.204 61.4807C248.756 61.2742 248.222 61.1718 247.6 61.1718C246.726 61.1718 246.047 61.4113 245.563 61.8868C245.079 62.364 244.836 62.9921 244.836 63.773C244.836 64.2936 244.952 64.7465 245.183 65.13C245.414 65.5152 245.738 65.8154 246.155 66.0323C246.571 66.2492 247.052 66.3568 247.6 66.3568L247.602 66.3585ZM250.618 56.4745H252.671V67.804H250.76C250.729 67.5541 250.698 67.2331 250.665 66.8375C250.634 66.4418 250.618 66.0705 250.618 65.7234V56.4745Z" fill="white"/>
<path d="M257.077 56.1812V58.0345H254.692V56.1812H257.077ZM254.85 59.7263H256.903V67.8058H254.85V59.7263Z" fill="white"/>
<path d="M263.424 68.0001C262.435 68.0001 261.564 67.837 260.811 67.5125C260.058 67.188 259.471 66.7143 259.05 66.0896C258.628 65.4666 258.418 64.6996 258.418 63.7886C258.418 62.8776 258.628 62.1054 259.05 61.472C259.471 60.8387 260.058 60.358 260.811 60.0335C261.564 59.709 262.435 59.5459 263.424 59.5459C264.413 59.5459 265.279 59.709 266.022 60.0335C266.765 60.358 267.346 60.8387 267.768 61.472C268.189 62.1054 268.399 62.8776 268.399 63.7886C268.399 64.6996 268.189 65.4666 267.768 66.0896C267.346 66.7125 266.765 67.1863 266.022 67.5125C265.279 67.837 264.413 68.0001 263.424 68.0001ZM263.424 66.3742C263.971 66.3742 264.464 66.2735 264.901 66.074C265.338 65.8727 265.682 65.5811 265.935 65.1959C266.189 64.8107 266.314 64.3422 266.314 63.7903C266.314 63.2385 266.187 62.7631 265.935 62.3674C265.682 61.9718 265.34 61.6716 264.908 61.4651C264.476 61.2586 263.981 61.1562 263.424 61.1562C262.867 61.1562 262.381 61.2586 261.941 61.4651C261.498 61.6716 261.148 61.9683 260.891 62.3587C260.632 62.7492 260.504 63.2264 260.504 63.7886C260.504 64.3508 260.631 64.8107 260.882 65.1942C261.134 65.5777 261.483 65.8709 261.925 66.0722C262.368 66.2735 262.867 66.3724 263.426 66.3724L263.424 66.3742Z" fill="white"/>
<path d="M247.595 27.7453C246.144 17.7484 251.411 11.5154 259.902 11.5154C266.673 11.5154 269.414 15.0622 269.468 28.0681L269.576 45.9639C269.63 52.0912 266.083 53.9722 263.074 53.9722C258.56 53.9722 257.162 50.4791 257.162 47.7391C257.162 45.4277 258.343 42.0422 258.935 39.946L265.009 18.5033C266.244 14.0419 260.547 12.4836 259.097 17.266L250.606 45.3184C248.994 50.6925 247.274 53.9705 243.673 53.9705C241.202 53.9705 239.214 52.197 236.311 46.3925L230.078 34.0322C228.466 30.8081 227.336 25.9719 228.035 21.5105L228.519 18.4478C228.95 15.7078 226.746 14.3091 224.273 14.3091C221.264 14.3091 219.489 16.5667 219.489 19.6295C219.489 21.134 220.188 23.5529 220.671 24.7346L228.087 42.9532C230.345 48.4887 229.217 53.9705 223.412 53.9705C216.372 53.9705 215.514 46.8767 215.514 39.0836V27.7453C215.514 15.654 219.114 11.4616 225.347 11.4616C229.593 11.4616 233.14 13.6116 235.45 19.2009L244.156 40.3208C244.963 42.3094 246.037 42.955 247.057 42.955C248.777 42.955 249.584 41.2353 248.992 37.3119L247.595 27.7453Z" fill="white"/>
<path d="M42.7987 34.7107C42.7935 33.5724 42.8438 32.434 42.9358 31.2992C43.1232 29.0103 43.5431 26.7684 44.3118 24.5993C44.9574 22.7773 45.8319 21.0767 47.0293 19.5531C47.8292 18.5363 48.7316 17.6235 49.7762 16.853C50.295 16.4696 50.8399 16.1294 51.4369 15.8761C51.8741 15.6904 52.3288 15.5742 52.799 15.5238C53.1808 15.4839 53.5556 15.5238 53.9252 15.6262C54.8015 15.8691 55.2822 16.4505 55.3516 17.3563C55.3829 17.7727 55.3412 18.1823 55.244 18.5883C55.1 19.1939 54.897 19.7787 54.6818 20.3618C53.986 22.248 53.2884 24.1342 52.6567 26.043C51.7353 28.8247 50.9024 31.6323 50.1076 34.4521C49.5784 36.3314 49.0647 38.2159 48.5546 40.1004C48.3203 40.9663 48.1225 41.8409 47.9923 42.7276C47.8986 43.3645 47.8344 44.0048 47.7581 44.6434C47.7182 44.9748 47.6661 45.3028 47.5603 45.6221C47.4908 45.8303 47.3989 46.0281 47.2601 46.1999C46.9703 46.5539 46.6007 46.6789 46.153 46.5886C45.9343 46.5452 45.74 46.4498 45.5578 46.3283C45.2871 46.1479 45.0632 45.9188 44.8689 45.6585C44.5635 45.249 44.3396 44.7978 44.1557 44.3258C43.8208 43.4669 43.5952 42.5767 43.4147 41.6743C43.1596 40.3868 43.0017 39.0871 42.9132 37.7787C42.8438 36.7566 42.8004 35.7362 42.7987 34.7124V34.7107Z" fill="white"/>
<path d="M59.8685 54.2377C59.1224 54.2464 58.0656 54.1943 57.014 54.0711C56.0093 53.9531 55.0115 53.7883 54.0484 53.4672C53.5782 53.3093 53.1287 53.1063 52.7175 52.8252C52.4121 52.6152 52.1379 52.3723 51.921 52.0703C51.7388 51.8153 51.6052 51.5393 51.5306 51.2322C51.4334 50.8279 51.5011 50.4583 51.7353 50.1164C51.9002 49.8752 52.1101 49.6826 52.3444 49.5126C52.6533 49.2887 52.9865 49.1065 53.3439 48.9764C53.9582 48.7508 54.5742 48.5304 55.1989 48.3343C57.4149 47.6419 59.5909 46.8402 61.7582 46.0143C65.0101 44.7735 68.2291 43.4513 71.3959 42.0058C72.1803 41.6483 72.9577 41.2787 73.7472 40.9334C74.1567 40.7546 74.5801 40.6037 75.0053 40.4649C75.243 40.3868 75.4964 40.3347 75.7462 40.3122C76.6347 40.2289 77.2334 40.6523 77.5075 41.3898C77.6898 41.8826 77.7383 42.3945 77.6811 42.9168C77.6012 43.6456 77.3722 44.3293 77.065 44.9887C76.5393 46.1201 75.8573 47.1561 75.073 48.1243C72.9906 50.6995 70.3374 52.407 67.1653 53.3249C66.0374 53.6512 64.8904 53.8837 63.726 54.0277C62.376 54.196 61.5014 54.2377 59.8703 54.2394L59.8685 54.2377Z" fill="white"/>
<path d="M78.9253 31.5438C78.9131 32.1338 78.9079 32.5468 78.8194 32.9546C78.7361 33.3416 78.5956 33.7025 78.3613 34.0235C77.9361 34.6066 77.3271 34.7749 76.6555 34.5042C76.397 34.4001 76.1592 34.2595 75.9545 34.0721C75.6751 33.817 75.3888 33.5637 75.1424 33.2774C74.6044 32.6492 74.0752 32.0106 73.5667 31.3599C71.802 29.1058 70.0459 26.8465 68.2169 24.6427C66.5858 22.6783 64.9112 20.7539 63.1534 18.9024C62.6953 18.4183 62.2441 17.9272 61.8016 17.4292C61.6107 17.2157 61.4372 16.9832 61.2828 16.742C61.1596 16.5511 61.0537 16.3411 60.9808 16.126C60.7848 15.5429 60.9548 15.0015 61.4337 14.6145C61.6784 14.4167 61.9561 14.2814 62.2545 14.1877C62.8116 14.0141 63.3824 13.9829 63.9603 14.0176C65.2687 14.0974 66.5181 14.4341 67.7432 14.8783C69.3761 15.47 70.8927 16.2717 72.2479 17.3649C73.8548 18.6595 75.1268 20.2316 76.1297 22.0259C77.0095 23.5998 77.6446 25.2726 78.1218 27.0061C78.4099 28.0473 78.6459 29.1023 78.7934 30.173C78.8645 30.6849 78.894 31.202 78.9253 31.5438Z" fill="white"/>
</g>
<defs>
<clipPath id="clip0_10002_56">
<rect width="269.576" height="68" fill="white"/>
</clipPath>
</defs>
</svg>
