<svg width="361" height="79" viewBox="0 0 361 79" fill="none" xmlns="http://www.w3.org/2000/svg">
<g style="mix-blend-mode:difference">
<path d="M13.2772 59.9719C14.0879 62.4002 15.7492 64.3922 18.2813 65.9289C20.8134 67.4656 24.1261 68.2339 28.2294 68.2339C31.0117 68.2339 33.1834 67.9872 34.7146 67.4845C36.2559 66.9818 37.3168 66.2514 37.9072 65.2839C38.4977 64.3164 38.788 63.2255 38.788 62.0114C38.788 60.5126 38.3076 59.3459 37.3568 58.5207C36.406 57.6954 34.9348 57.0409 32.9532 56.5382C30.9716 56.0354 28.4396 55.5707 25.3671 55.1438C22.2846 54.6411 19.3221 54.0339 16.4598 53.3225C13.5975 52.6111 11.0754 51.6625 8.87362 50.4768C6.67183 49.3006 4.93044 47.7924 3.6494 45.9712C2.36836 44.15 1.72786 41.9114 1.72786 39.2649C1.72786 36.6184 2.36836 34.3988 3.6494 32.3973C4.93044 30.3959 6.73191 28.7169 9.03379 27.351C11.3457 25.9946 14.0579 24.9512 17.1704 24.2398C20.2829 23.5283 23.6357 23.1679 27.2286 23.1679C32.653 23.1679 37.1567 23.9362 40.7596 25.4729C44.3525 27.0095 47.0447 29.1533 48.8461 31.9136C50.6376 34.6644 51.5383 37.8326 51.5383 41.4086H38.888C38.2975 38.7622 37.1266 36.8461 35.3652 35.6699C33.6038 34.4937 30.8916 33.8961 27.2286 33.8961C23.5656 33.8961 20.9234 34.4368 19.092 35.5086C17.2605 36.5805 16.3397 38.0508 16.3397 39.91C16.3397 41.4087 16.9102 42.5754 18.0411 43.4006C19.182 44.2259 20.8634 44.8898 23.0952 45.3831C25.327 45.8858 28.1393 46.417 31.512 46.9957C34.3744 47.5648 37.0966 48.2098 39.7087 48.9307C42.3108 49.6421 44.6427 50.5622 46.6944 51.6625C48.7461 52.7724 50.3774 54.2332 51.5884 56.0639C52.7993 57.8851 53.3998 60.1901 53.3998 62.9788C53.3998 66.4126 52.389 69.3058 50.3774 71.6677C48.3558 74.0296 45.4834 75.8318 41.7404 77.0839C37.9973 78.336 33.5237 78.9621 28.3194 78.9621C23.6957 78.9621 19.7225 78.4783 16.3897 77.5108C13.057 76.5432 10.2848 75.2912 8.083 73.7545C5.88121 72.2178 4.17984 70.5768 2.96886 68.822C1.75787 67.0672 0.937171 65.4072 0.496813 63.8326C0.0564552 62.258 -0.0936693 60.9679 0.0564528 59.9719H13.2772Z" fill="white"/>
<path d="M59.3446 24.3536H101.789V35.1862H59.3446V24.3536ZM73.4161 9.76481H87.7177V77.6816H73.4161V9.76481Z" fill="white"/>
<path d="M159.526 52.0325L159.636 55.6844C159.486 56.6899 159.126 58.1317 158.535 60.0289C157.945 61.926 157.054 63.9464 155.843 66.0902C154.632 68.2339 153.071 70.2923 151.169 72.2558C149.258 74.2288 146.916 75.8318 144.134 77.0839C141.341 78.336 138.049 78.9621 134.236 78.9621C131.233 78.9621 128.281 78.6016 125.378 77.8902C122.486 77.1788 119.864 75.9742 117.512 74.2952C115.17 72.6163 113.299 70.3397 111.907 67.4845C110.516 64.6199 109.816 61.0154 109.816 56.652V24.3536H124.107V54.2901C124.107 57.7239 124.678 60.4272 125.809 62.3908C126.95 64.3638 128.611 65.7392 130.813 66.517C133.015 67.3043 135.617 67.6932 138.619 67.6932C142.582 67.6932 145.985 66.8585 148.847 65.17C151.71 63.4911 154.032 61.4327 155.833 59.0044C157.625 56.5761 158.856 54.2521 159.516 52.0325H159.526ZM173.047 77.6721H158.755V24.3536H173.047V77.6721Z" fill="white"/>
<path d="M211.548 78.8578C206.054 78.8578 201.08 77.691 196.646 75.3671C192.213 73.0431 188.71 69.7895 186.148 65.6064C183.576 61.4233 182.295 56.5761 182.295 51.065C182.295 45.5539 183.556 40.517 186.088 36.3623C188.62 32.2171 192.083 28.9731 196.476 26.6491C200.88 24.3251 205.894 23.1584 211.538 23.1584C216.452 23.1584 220.626 23.8698 224.079 25.3022C227.521 26.7345 230.314 28.7169 232.435 31.2591C234.557 33.8012 236.118 36.7513 237.109 40.1091C238.1 43.467 238.59 47.119 238.59 51.0555C238.59 54.2048 238.08 57.4014 237.049 60.655C236.018 63.9085 234.447 66.9154 232.325 69.6663C230.194 72.4171 227.411 74.6367 223.969 76.3156C220.526 77.9945 216.382 78.8388 211.538 78.8388L211.548 78.8578ZM216.162 68.1296C220.486 68.1296 224.229 67.4182 227.381 65.9858C230.534 64.5535 232.956 62.5521 234.637 59.9815C236.319 57.4109 237.169 54.4419 237.169 51.0745C237.169 47.4225 236.309 44.3303 234.587 41.7976C232.866 39.2555 230.444 37.3109 227.331 35.9545C224.219 34.598 220.496 33.9151 216.172 33.9151C210.087 33.9151 205.353 35.4897 201.991 38.6389C198.618 41.7881 196.937 45.9333 196.937 51.084C196.937 54.5178 197.747 57.5057 199.359 60.0384C200.97 62.5805 203.222 64.563 206.124 65.9953C209.016 67.4277 212.369 68.139 216.182 68.139L216.162 68.1296ZM251.461 2.89722V77.6815H238.15C237.93 76.0405 237.71 73.9063 237.49 71.2978C237.269 68.6892 237.159 66.2419 237.159 63.9464V2.89722H251.461Z" fill="white"/>
<path d="M282.146 0.962158V13.1891H265.542V0.962158H282.146ZM266.643 24.3536H280.945V77.6721H266.643V24.3536Z" fill="white"/>
<path d="M326.352 78.9622C319.456 78.9622 313.391 77.8903 308.147 75.7465C302.903 73.6028 298.819 70.4725 295.887 66.3558C292.955 62.239 291.483 57.1832 291.483 51.1788C291.483 45.1745 292.945 40.0712 295.887 35.8881C298.819 31.705 302.903 28.5368 308.147 26.3931C313.391 24.2493 319.456 23.1774 326.352 23.1774C333.247 23.1774 339.272 24.2493 344.447 26.3931C349.621 28.5368 353.664 31.705 356.596 35.8881C359.529 40.0712 361 45.165 361 51.1788C361 57.1927 359.529 62.2485 356.596 66.3558C353.664 70.4725 349.611 73.5933 344.447 75.7465C339.282 77.8903 333.247 78.9622 326.352 78.9622ZM326.352 68.234C330.165 68.234 333.588 67.5699 336.63 66.2515C339.673 64.933 342.075 62.9979 343.836 60.4558C345.598 57.9136 346.478 54.8213 346.478 51.1788C346.478 47.5364 345.598 44.4062 343.836 41.7882C342.075 39.1796 339.693 37.1971 336.69 35.8312C333.688 34.4747 330.235 33.7918 326.352 33.7918C322.469 33.7918 319.096 34.4747 316.013 35.8312C312.931 37.1876 310.499 39.1607 308.697 41.7312C306.896 44.3018 306.005 47.4511 306.005 51.1694C306.005 54.8878 306.886 57.9136 308.647 60.4463C310.409 62.9884 312.831 64.914 315.903 66.242C318.986 67.5699 322.459 68.2245 326.352 68.2245V68.234Z" fill="white"/>
</g>
</svg>
